<svg width="215" height="71" viewBox="0 0 215 71" fill="none" xmlns="http://www.w3.org/2000/svg">
<path d="M62.0327 65.8798C59.7224 64.2386 60.8566 45.2003 60.8566 45.2003C60.7666 39.4906 59.6992 37.7786 58.9491 37.2668C58.9366 39.6493 58.7415 42.5561 58.3628 45.9882C58.4956 46.9831 59.7981 56.9827 59.0809 60.2077L58.9081 62.722C59.0194 63.3584 59.5264 66.604 58.762 68.4245L63.4395 68.5473C66.0215 68.8207 65.0289 67.2566 65.0289 67.2566L62.0327 65.8798ZM73.4021 0.140347L69.7991 3.14757L67.2403 4.98686C64.6146 6.64958 59.5977 10.969 59.5977 10.969C59.0542 11.9263 58.1027 12.0626 58.1027 12.0626C54.5691 13.84 51.5791 16.8481 51.5791 16.8481C48.0456 21.0869 45.8708 22.3176 45.8708 22.3176C43.9677 23.1378 41.6575 26.8298 41.6575 26.8298C39.4826 27.7871 35.2034 34.8969 35.2034 34.8969C31.4676 38.0412 29.8336 42.4172 29.8336 42.4172C27.1153 43.6478 21.815 51.5778 21.815 51.5778L17.738 55.2698C11.6225 57.1844 8.22445 61.5594 8.22445 61.5594L4.55462 64.2942L0.343082 68.3949C0.343082 68.3949 -1.42368 71.6764 3.06138 70.4458C3.06138 70.4458 3.33312 67.9844 4.69182 67.9844C4.69182 67.9844 5.50704 67.8473 5.77878 66.6175L8.22534 64.84C8.22534 64.84 16.3793 62.7892 19.0976 59.9182C19.0976 59.9182 24.6697 57.7303 26.7082 54.9964C26.7082 54.9964 33.7788 51.5787 35.2043 49.8003C35.2043 49.8003 35.6783 48.9802 38.8037 49.2536C38.8037 49.2536 48.8608 49.5269 52.8024 45.4253L53.802 45.151C52.9494 41.9403 52.8647 39.3257 52.887 38.1111C50.297 38.7538 46.8553 39.6403 46.8179 39.6493C46.5639 39.7165 46.302 39.5829 46.2004 39.34C46.0997 39.0971 46.1915 38.8166 46.416 38.6812C48.4652 37.4443 53.2924 35.4383 53.4973 35.3531C53.6684 35.2805 53.8671 35.3074 54.0159 35.4203C54.1646 35.5333 54.2431 35.7179 54.2217 35.9044L53.9428 38.355C53.9401 39.825 54.1076 42.9792 55.3461 46.6219C55.3665 46.682 55.3763 46.7456 55.3746 46.8083C55.273 50.4448 55.2783 60.3727 56.515 62.609C56.5871 62.7399 56.6014 62.8959 56.5542 63.0375C55.9332 64.8786 57.1707 66.7851 57.9111 67.7083C58.3263 66.2993 58.0376 63.8245 57.8603 62.8484C57.8523 62.8044 57.8496 62.7605 57.8532 62.7166L58.0332 60.0966C58.035 60.0679 58.0394 60.0401 58.0456 60.0124C58.7629 56.9263 57.3249 46.1773 57.3106 46.0689C57.3044 46.0258 57.3044 45.9819 57.3088 45.9389C58.6711 33.6483 57.3329 31.0399 56.6941 30.4896C56.5221 30.3417 56.4081 30.3659 56.3965 30.3694C56.1515 30.5209 55.927 30.4035 55.771 30.1624C55.1233 29.163 54.9362 28.4136 55.1821 27.8032C55.5269 26.9472 56.5809 26.7061 57.6973 26.4515C58.1784 26.3422 58.6755 26.2284 59.1388 26.0652C61.4161 25.263 62.4371 24.3658 63.0412 22.6349C63.6284 20.9534 61.7039 18.9537 61.6843 18.9339C61.6638 18.9133 61.6442 18.89 61.6273 18.8658C61.5979 18.8282 60.7176 17.74 58.0644 18.7251C57.8924 18.7887 57.6991 18.7582 57.5538 18.6426C57.4852 18.5906 57.291 18.4893 57.1547 18.5288C57.0273 18.5655 56.8927 18.7466 56.7867 19.0245C56.711 19.2217 56.5266 19.3552 56.3163 19.3642C56.3092 19.3651 55.3006 19.4242 54.9549 20.1207C54.8685 20.2946 54.6948 20.4066 54.5014 20.4138C54.4952 20.4147 54.3259 20.4344 54.2297 20.5957C54.1415 20.7427 53.9918 21.2169 54.5005 22.4395C54.5638 22.5919 54.5531 22.7649 54.472 22.9083L53.6238 24.3989C53.4786 24.6535 53.1561 24.7413 52.9048 24.5952C52.6518 24.45 52.5645 24.1255 52.7088 23.871L53.4305 22.6027C53.0011 21.4715 52.9734 20.6011 53.3485 20.0122C53.5829 19.6447 53.9081 19.4816 54.1486 19.4099C54.6386 18.6767 55.4708 18.4284 55.935 18.345C56.1684 17.8951 56.4847 17.6127 56.8794 17.5043C57.3061 17.3868 57.6955 17.5168 57.9414 17.6423C57.9957 17.6235 58.0456 17.6109 58.0991 17.5939C59.7598 16.0414 61.9088 12.7483 61.9088 12.7483C64.8988 10.6975 70.4049 4.98776 70.4049 4.98776C70.4049 4.98776 71.8233 3.17357 73.0662 2.19566C74.2004 1.30201 74.3046 -0.517568 73.4021 0.140347Z" fill="white"/>
<path d="M90.5035 19.645H91.1112V32.0194C91.1112 32.7783 90.8178 33.5583 90.2521 34.1486C89.6654 34.7178 88.911 35.0129 88.1357 35.0129C87.3813 35.0129 86.627 34.7178 86.0403 34.1486L86.4594 33.7059C86.9204 34.1486 87.5071 34.4016 88.1357 34.4016C88.7643 34.4016 89.372 34.1486 89.812 33.7059C90.2521 33.2632 90.4826 32.6729 90.5035 32.0194V19.645ZM100.45 20.2563C96.6578 20.2563 93.5984 23.3552 93.5984 27.1708C93.5984 30.9865 96.6578 34.0853 100.45 34.0853C104.243 34.0853 107.344 30.9865 107.344 27.1708C107.344 23.3552 104.243 20.2563 100.45 20.2563ZM100.45 19.645C104.599 19.645 107.952 23.0179 107.952 27.1708C107.952 31.3238 104.599 34.7178 100.45 34.7178C96.3225 34.7178 92.9698 31.3238 92.9698 27.1708C92.9698 23.0179 96.3225 19.645 100.45 19.645ZM115.468 19.645H116.139L113.31 25.3579V34.7178H112.639V25.3579L109.811 19.645H110.481L112.975 24.6622L115.468 19.645ZM121.015 20.2774H118.605V24.4303H121.015V25.0627H118.605V34.0853H121.015V34.7178H117.997V19.645H121.015V20.2774ZM126.038 35.0129C124.298 35.0129 122.874 33.5794 122.874 31.8086V19.645H123.481V31.8086C123.481 33.2421 124.634 34.3805 126.038 34.3805C127.442 34.3805 128.594 33.2421 128.594 31.8086V19.645H129.202V31.8086C129.202 33.5794 127.777 35.0129 126.038 35.0129ZM139.191 19.645L135.461 27.1708L139.191 34.7178H138.499L135.125 27.8665L131.731 34.7178H131.06L134.79 27.1708L131.06 19.645H131.731L135.125 26.4752L138.499 19.645H139.191ZM153.133 19.645H153.741V34.7178H153.133V31.9983C153.029 27.1708 150.577 22.9336 146.868 20.3828V34.7178H146.26V19.645H146.868C149.865 21.5633 152.107 24.5357 153.133 28.0562V19.645ZM158.764 35.0129C157.025 35.0129 155.6 33.5794 155.6 31.8086V19.645H156.207V31.8086C156.207 33.2421 157.36 34.3805 158.764 34.3805C160.168 34.3805 161.32 33.2421 161.32 31.8086V19.645H161.928V31.8086C161.928 33.5794 160.503 35.0129 158.764 35.0129ZM168.711 19.645V20.2563H166.573V34.7178H165.966V20.2563H163.786V19.645H168.711ZM176.29 24.7887C176.29 26.7492 175.221 28.4568 173.629 29.3211L176.29 34.7178H175.598L173.063 29.574C172.518 29.8059 171.91 29.9324 171.282 29.9324H171.177V34.7178H170.569V19.645H171.282C174.048 19.645 176.29 21.9428 176.29 24.7887ZM171.177 20.2563V29.3211H171.282C173.712 29.3211 175.682 27.2762 175.682 24.7887C175.682 22.2801 173.712 20.2563 171.282 20.2563H171.177ZM178.756 19.645V34.7178H178.148V19.645H178.756ZM185.539 19.645V20.2563H183.402V34.7178H182.794V20.2563H180.615V19.645H185.539ZM188.005 19.645V34.7178H187.398V19.645H188.005ZM197.345 20.2563C193.552 20.2563 190.493 23.3552 190.493 27.1708C190.493 30.9865 193.552 34.0853 197.345 34.0853C201.137 34.0853 204.239 30.9865 204.239 27.1708C204.239 23.3552 201.137 20.2563 197.345 20.2563ZM197.345 19.645C201.494 19.645 204.846 23.0179 204.846 27.1708C204.846 31.3238 201.494 34.7178 197.345 34.7178C193.217 34.7178 189.864 31.3238 189.864 27.1708C189.864 23.0179 193.217 19.645 197.345 19.645ZM213.578 19.645H214.185V34.7178H213.578V31.9983C213.473 27.1708 211.021 22.9336 207.312 20.3828V34.7178H206.705V19.645H207.312C210.309 21.5633 212.551 24.5357 213.578 28.0562V19.645Z" fill="white"/>
<path d="M88.3242 45.954C88.4638 46.2055 88.6256 46.4052 89.0079 46.4052C89.5225 46.4052 89.6989 45.917 89.6989 45.4215V42.6479C89.6989 42.4852 89.8166 42.4112 89.9342 42.4112C90.0592 42.4112 90.1915 42.4926 90.1915 42.6479V45.4215C90.1915 46.3312 89.7577 46.9007 89.0079 46.9007C88.3903 46.9007 88.111 46.5605 87.9125 46.2055C87.736 45.8948 88.1698 45.6803 88.3242 45.954ZM94.1217 45.5546V43.7203C94.1217 42.8328 94.5775 42.3594 95.4597 42.3594H95.6509C96.5257 42.3594 96.9889 42.8328 96.9889 43.7203V45.5546C96.9889 46.3682 96.4522 46.9007 95.6509 46.9007H95.4597C94.6437 46.9007 94.1217 46.3608 94.1217 45.5546ZM95.4597 46.4052H95.6509C96.1802 46.4052 96.4963 46.0723 96.4963 45.5546V43.7203C96.4963 43.1434 96.217 42.8476 95.6509 42.8476H95.4597C94.901 42.8476 94.5922 43.1508 94.5922 43.7203V45.5546C94.5922 46.0945 94.9304 46.4052 95.4597 46.4052ZM103.051 42.7588L102.14 44.6597V46.6271C102.14 46.7898 102.022 46.8637 101.904 46.8637C101.779 46.8637 101.662 46.7824 101.662 46.6271V44.6597L100.728 42.7662C100.574 42.4408 101.022 42.2485 101.176 42.5591L101.904 44.0236L102.603 42.5665C102.764 42.2263 103.206 42.4408 103.051 42.7588ZM111.867 46.6271V42.6479C111.867 42.4926 111.985 42.4112 112.103 42.4112C112.22 42.4112 112.345 42.4926 112.345 42.6479V46.3682H113.808C113.97 46.3682 114.058 46.4939 114.058 46.6197C114.058 46.7454 113.97 46.8637 113.808 46.8637H112.11C111.963 46.8637 111.867 46.7454 111.867 46.6271ZM117.643 45.5546V43.7203C117.643 42.8328 118.099 42.3594 118.981 42.3594H119.172C120.047 42.3594 120.51 42.8328 120.51 43.7203V45.5546C120.51 46.3682 119.973 46.9007 119.172 46.9007H118.981C118.165 46.9007 117.643 46.3608 117.643 45.5546ZM118.981 46.4052H119.172C119.701 46.4052 120.017 46.0723 120.017 45.5546V43.7203C120.017 43.1434 119.738 42.8476 119.172 42.8476H118.981C118.422 42.8476 118.113 43.1508 118.113 43.7203V45.5546C118.113 46.0945 118.451 46.4052 118.981 46.4052ZM124.403 45.5546V43.7203C124.403 42.8328 124.859 42.3594 125.741 42.3594H125.933C126.807 42.3594 127.271 42.8328 127.271 43.7203V45.5546C127.271 46.3682 126.734 46.9007 125.933 46.9007H125.741C124.925 46.9007 124.403 46.3608 124.403 45.5546ZM125.741 46.4052H125.933C126.462 46.4052 126.778 46.0723 126.778 45.5546V43.7203C126.778 43.1434 126.499 42.8476 125.933 42.8476H125.741C125.183 42.8476 124.874 43.1508 124.874 43.7203V45.5546C124.874 46.0945 125.212 46.4052 125.741 46.4052ZM131.238 46.6271V42.6479C131.238 42.4926 131.355 42.4112 131.473 42.4112C131.59 42.4112 131.715 42.4926 131.715 42.6479V44.4378L133.134 42.5222C133.318 42.2707 133.737 42.5148 133.546 42.7736L132.723 43.9126L133.73 46.5383C133.796 46.7158 133.664 46.8637 133.509 46.8637C133.421 46.8637 133.318 46.7972 133.267 46.6566C132.98 45.917 132.671 45.1478 132.384 44.3934L131.715 45.2661V46.6271C131.715 46.7824 131.59 46.8637 131.473 46.8637C131.355 46.8637 131.238 46.7824 131.238 46.6271ZM137.609 46.2277C137.447 45.9244 137.859 45.7025 138.05 46.0058C138.145 46.1611 138.432 46.4274 138.888 46.4274C139.079 46.4274 139.557 46.2868 139.623 45.7395C139.667 45.4067 139.351 45.0812 138.807 44.8076C138.042 44.4452 137.462 44.1271 137.462 43.4911C137.462 42.7366 138.094 42.3816 138.77 42.3816C139.38 42.3816 139.719 42.7588 139.836 42.9511C140.005 43.2248 139.638 43.4911 139.432 43.2248C139.329 43.0917 139.13 42.8698 138.77 42.8698C138.366 42.8698 137.947 43.0621 137.947 43.4911C137.947 43.8313 138.322 44.0236 138.88 44.2898C139.535 44.6153 140.218 44.9333 140.116 45.7987C140.035 46.4791 139.52 46.9155 138.888 46.9155C138.41 46.9155 137.822 46.6566 137.609 46.2277ZM148.821 45.562V43.7795C148.821 42.7145 149.402 42.3964 150.255 42.3964C150.961 42.3964 151.644 42.7588 151.644 43.5058C151.644 43.6686 151.527 43.7499 151.402 43.7499C151.277 43.7499 151.152 43.6686 151.152 43.5058C151.152 43.1286 150.74 42.8772 150.255 42.8772C149.586 42.8772 149.307 43.1508 149.307 43.7795V45.562C149.307 46.2055 149.66 46.4052 150.255 46.4052C150.961 46.4052 151.211 46.0649 151.211 45.4067V45.096H150.549C150.395 45.096 150.314 44.9777 150.314 44.852C150.314 44.7262 150.395 44.6005 150.549 44.6005H151.468C151.615 44.6005 151.696 44.7484 151.696 44.852V45.4067C151.696 46.4717 151.284 46.8859 150.255 46.8859C149.285 46.8859 148.821 46.5309 148.821 45.562ZM155.56 45.5546V43.7203C155.56 42.8328 156.016 42.3594 156.898 42.3594H157.089C157.964 42.3594 158.427 42.8328 158.427 43.7203V45.5546C158.427 46.3682 157.89 46.9007 157.089 46.9007H156.898C156.082 46.9007 155.56 46.3608 155.56 45.5546ZM156.898 46.4052H157.089C157.618 46.4052 157.935 46.0723 157.935 45.5546V43.7203C157.935 43.1434 157.655 42.8476 157.089 42.8476H156.898C156.339 42.8476 156.031 43.1508 156.031 43.7203V45.5546C156.031 46.0945 156.369 46.4052 156.898 46.4052ZM162.321 45.5546V43.7203C162.321 42.8328 162.776 42.3594 163.659 42.3594H163.85C164.725 42.3594 165.188 42.8328 165.188 43.7203V45.5546C165.188 46.3682 164.651 46.9007 163.85 46.9007H163.659C162.843 46.9007 162.321 46.3608 162.321 45.5546ZM163.659 46.4052H163.85C164.379 46.4052 164.695 46.0723 164.695 45.5546V43.7203C164.695 43.1434 164.416 42.8476 163.85 42.8476H163.659C163.1 42.8476 162.791 43.1508 162.791 43.7203V45.5546C162.791 46.0945 163.129 46.4052 163.659 46.4052ZM169.162 46.6344V42.6553C169.162 42.4556 169.302 42.4112 169.405 42.4112H170.581C171.551 42.4112 172.029 42.8772 172.029 43.7943V45.6877C172.029 46.2646 171.581 46.8711 170.603 46.8711H169.405C169.302 46.8711 169.162 46.812 169.162 46.6344ZM171.544 45.6877V43.7943C171.544 43.1878 171.221 42.9068 170.581 42.9068H169.647V46.3904H170.603C171.052 46.3904 171.544 46.1463 171.544 45.6877ZM180.875 45.5546V43.7203C180.875 42.8328 181.331 42.3594 182.213 42.3594H182.404C183.279 42.3594 183.742 42.8328 183.742 43.7203V45.5546C183.742 46.3682 183.205 46.9007 182.404 46.9007H182.213C181.397 46.9007 180.875 46.3608 180.875 45.5546ZM182.213 46.4052H182.404C182.933 46.4052 183.249 46.0723 183.249 45.5546V43.7203C183.249 43.1434 182.97 42.8476 182.404 42.8476H182.213C181.654 42.8476 181.345 43.1508 181.345 43.7203V45.5546C181.345 46.0945 181.684 46.4052 182.213 46.4052ZM190.201 42.6479V46.6271C190.201 46.7824 190.084 46.8637 189.966 46.8637C189.878 46.8637 189.76 46.7972 189.709 46.701C189.157 45.6138 188.746 44.778 188.194 43.6834V46.6271C188.194 46.7824 188.077 46.8637 187.952 46.8637C187.834 46.8637 187.709 46.7824 187.709 46.6271V42.6479C187.709 42.389 188.077 42.3742 188.157 42.5295L189.709 45.6138V42.6479C189.709 42.4926 189.826 42.4112 189.951 42.4112C190.076 42.4112 190.201 42.4926 190.201 42.6479ZM201.326 42.7588L200.414 44.6597V46.6271C200.414 46.7898 200.297 46.8637 200.179 46.8637C200.054 46.8637 199.936 46.7824 199.936 46.6271V44.6597L199.003 42.7662C198.848 42.4408 199.297 42.2485 199.451 42.5591L200.179 44.0236L200.877 42.5665C201.039 42.2263 201.48 42.4408 201.326 42.7588ZM205.116 45.5546V43.7203C205.116 42.8328 205.572 42.3594 206.454 42.3594H206.646C207.52 42.3594 207.984 42.8328 207.984 43.7203V45.5546C207.984 46.3682 207.447 46.9007 206.646 46.9007H206.454C205.638 46.9007 205.116 46.3608 205.116 45.5546ZM206.454 46.4052H206.646C207.175 46.4052 207.491 46.0723 207.491 45.5546V43.7203C207.491 43.1434 207.212 42.8476 206.646 42.8476H206.454C205.896 42.8476 205.587 43.1508 205.587 43.7203V45.5546C205.587 46.0945 205.925 46.4052 206.454 46.4052ZM211.914 45.5546V42.6479C211.914 42.4926 212.039 42.4112 212.156 42.4112C212.281 42.4112 212.399 42.4926 212.399 42.6479V45.5546C212.399 46.0871 212.759 46.4052 213.259 46.4052H213.443C213.958 46.4052 214.31 46.0428 214.31 45.5546V42.6479C214.31 42.4926 214.428 42.4112 214.553 42.4112C214.671 42.4112 214.796 42.4926 214.796 42.6479V45.5546C214.796 46.3164 214.259 46.9007 213.443 46.9007H213.259C212.443 46.9007 211.914 46.3312 211.914 45.5546Z" fill="white"/>
</svg>
