<svg width="75" height="71" viewBox="0 0 75 71" fill="none" xmlns="http://www.w3.org/2000/svg">
<path d="M62.0327 65.8798C59.7224 64.2386 60.8566 45.2003 60.8566 45.2003C60.7666 39.4906 59.6992 37.7786 58.9491 37.2668C58.9366 39.6493 58.7415 42.5561 58.3628 45.9882C58.4956 46.9831 59.7981 56.9827 59.0809 60.2077L58.9081 62.722C59.0194 63.3584 59.5264 66.604 58.762 68.4245L63.4395 68.5473C66.0215 68.8207 65.0289 67.2566 65.0289 67.2566L62.0327 65.8798ZM73.4021 0.140347L69.7991 3.14757L67.2403 4.98686C64.6146 6.64958 59.5977 10.969 59.5977 10.969C59.0542 11.9263 58.1027 12.0626 58.1027 12.0626C54.5691 13.84 51.5791 16.8481 51.5791 16.8481C48.0456 21.0869 45.8708 22.3176 45.8708 22.3176C43.9677 23.1378 41.6575 26.8298 41.6575 26.8298C39.4826 27.7871 35.2034 34.8969 35.2034 34.8969C31.4676 38.0412 29.8336 42.4172 29.8336 42.4172C27.1153 43.6478 21.815 51.5778 21.815 51.5778L17.738 55.2698C11.6225 57.1844 8.22445 61.5594 8.22445 61.5594L4.55462 64.2942L0.343082 68.3949C0.343082 68.3949 -1.42368 71.6764 3.06138 70.4458C3.06138 70.4458 3.33312 67.9844 4.69182 67.9844C4.69182 67.9844 5.50704 67.8473 5.77878 66.6175L8.22534 64.84C8.22534 64.84 16.3793 62.7892 19.0976 59.9182C19.0976 59.9182 24.6697 57.7303 26.7082 54.9964C26.7082 54.9964 33.7788 51.5787 35.2043 49.8003C35.2043 49.8003 35.6783 48.9802 38.8037 49.2536C38.8037 49.2536 48.8608 49.5269 52.8024 45.4253L53.802 45.151C52.9494 41.9403 52.8647 39.3257 52.887 38.1111C50.297 38.7538 46.8553 39.6403 46.8179 39.6493C46.5639 39.7165 46.302 39.5829 46.2004 39.34C46.0997 39.0971 46.1915 38.8166 46.416 38.6812C48.4652 37.4443 53.2924 35.4383 53.4973 35.3531C53.6684 35.2805 53.8671 35.3074 54.0159 35.4203C54.1646 35.5333 54.2431 35.7179 54.2217 35.9044L53.9428 38.355C53.9401 39.825 54.1076 42.9792 55.3461 46.6219C55.3665 46.682 55.3763 46.7456 55.3746 46.8083C55.273 50.4448 55.2783 60.3727 56.515 62.609C56.5871 62.7399 56.6014 62.8959 56.5542 63.0375C55.9332 64.8786 57.1707 66.7851 57.9111 67.7083C58.3263 66.2993 58.0376 63.8245 57.8603 62.8484C57.8523 62.8044 57.8496 62.7605 57.8532 62.7166L58.0332 60.0966C58.035 60.0679 58.0394 60.0401 58.0456 60.0124C58.7629 56.9263 57.3249 46.1773 57.3106 46.0689C57.3044 46.0258 57.3044 45.9819 57.3088 45.9389C58.6711 33.6483 57.3329 31.0399 56.6941 30.4896C56.5221 30.3417 56.4081 30.3659 56.3965 30.3694C56.1515 30.5209 55.927 30.4035 55.771 30.1624C55.1233 29.163 54.9362 28.4136 55.1821 27.8032C55.5269 26.9472 56.5809 26.7061 57.6973 26.4515C58.1784 26.3422 58.6755 26.2284 59.1388 26.0652C61.4161 25.263 62.4371 24.3658 63.0412 22.6349C63.6284 20.9534 61.7039 18.9537 61.6843 18.9339C61.6638 18.9133 61.6442 18.89 61.6273 18.8658C61.5979 18.8282 60.7176 17.74 58.0644 18.7251C57.8924 18.7887 57.6991 18.7582 57.5538 18.6426C57.4852 18.5906 57.291 18.4893 57.1547 18.5288C57.0273 18.5655 56.8927 18.7466 56.7867 19.0245C56.711 19.2217 56.5266 19.3552 56.3163 19.3642C56.3092 19.3651 55.3006 19.4242 54.9549 20.1207C54.8685 20.2946 54.6948 20.4066 54.5014 20.4138C54.4952 20.4147 54.3259 20.4344 54.2297 20.5957C54.1415 20.7427 53.9918 21.2169 54.5005 22.4395C54.5638 22.5919 54.5531 22.7649 54.472 22.9083L53.6238 24.3989C53.4786 24.6535 53.1561 24.7413 52.9048 24.5952C52.6518 24.45 52.5645 24.1255 52.7088 23.871L53.4305 22.6027C53.0011 21.4715 52.9734 20.6011 53.3485 20.0122C53.5829 19.6447 53.9081 19.4816 54.1486 19.4099C54.6386 18.6767 55.4708 18.4284 55.935 18.345C56.1684 17.8951 56.4847 17.6127 56.8794 17.5043C57.3061 17.3868 57.6955 17.5168 57.9414 17.6423C57.9957 17.6235 58.0456 17.6109 58.0991 17.5939C59.7598 16.0414 61.9088 12.7483 61.9088 12.7483C64.8988 10.6975 70.4049 4.98776 70.4049 4.98776C70.4049 4.98776 71.8233 3.17357 73.0662 2.19566C74.2004 1.30201 74.3046 -0.517568 73.4021 0.140347Z" fill="white"/>
</svg>
